<svg xmlns="http://www.w3.org/2000/svg" viewBox="0 0 128 128" role="img" aria-labelledby="title desc">
  <title id="title">Student avatar</title>
  <desc id="desc">A circular student profile avatar.</desc>
  <defs>
    <linearGradient id="bg" x1="18" y1="12" x2="110" y2="118" gradientUnits="userSpaceOnUse">
      <stop stop-color="#dff0ff"/>
      <stop offset="1" stop-color="#2f6ea3"/>
    </linearGradient>
    <linearGradient id="shirt" x1="35" y1="72" x2="94" y2="119" gradientUnits="userSpaceOnUse">
      <stop stop-color="#0f5da8"/>
      <stop offset="1" stop-color="#083b76"/>
    </linearGradient>
  </defs>
  <circle cx="64" cy="64" r="61" fill="url(#bg)"/>
  <circle cx="64" cy="47" r="24" fill="#f7c79f"/>
  <path d="M40 47c0-16 10-27 25-27 13 0 23 9 23 22 0 3-.4 6-1.3 8-5-8-13-13-24-13-9 0-16 3-22.7 10Z" fill="#26364a"/>
  <path d="M26 112c4-24 19-38 38-38s34 14 38 38H26Z" fill="url(#shirt)"/>
  <path d="M50 77l14 17 14-17" fill="#ffffff" opacity=".92"/>
  <path d="M52 75c3 5 7 8 12 8s9-3 12-8" stroke="#e7a77f" stroke-width="5" stroke-linecap="round"/>
  <circle cx="54" cy="49" r="3" fill="#26364a"/>
  <circle cx="74" cy="49" r="3" fill="#26364a"/>
  <path d="M56 61c5 4 11 4 16 0" stroke="#a85f50" stroke-width="4" stroke-linecap="round"/>
</svg>
